<svg
  width="250"
  height="83"
  viewBox="0 0 250 83"
  fill="white"
  xmlns="http://www.w3.org/2000/svg"
  aria-hidden="true"
>
  <path
    fillRule="evenodd"
    clipRule="evenodd"
    d="M24.4749 11.4338C27.1323 4.5441 33.7555 0 41.1399 0C51.0046 0 59.0016 7.99696 59.0016 17.8617V64.2028C59.0016 67.4045 61.5971 70 64.7988 70C67.2219 70 69.3895 68.4929 70.2332 66.2213L90.521 11.6004C93.1111 4.62686 99.7654 0 107.204 0C117.034 0 125.002 7.96806 125.002 17.7972V64.2028C125.002 67.4045 127.597 70 130.799 70C133.222 70 135.389 68.4929 136.233 66.2213L155.746 13.6881C158.802 5.45952 166.654 0 175.431 0H213.098C238.435 0 255.844 25.478 246.637 49.0825L245.117 52.9781C238.176 70.7723 220.961 82.426 201.862 82.2599L171.949 81.9998C168.636 81.971 165.973 79.2614 166.002 75.9478C166.031 72.6342 168.74 69.9714 172.054 70.0002L201.966 70.2603C216.083 70.3831 228.807 61.7695 233.938 48.6173L235.457 44.7217C241.595 28.9853 229.989 12 213.098 12H175.431C171.67 12 168.304 14.3398 166.995 17.8663L147.482 70.3996C144.892 77.3731 138.238 82 130.799 82C120.97 82 113.002 74.0319 113.002 64.2028V17.7972C113.002 14.5955 110.406 12 107.204 12C104.781 12 102.614 13.5071 101.77 15.7787L81.4823 70.3996C78.8921 77.3731 72.2379 82 64.7988 82C54.9697 82 47.0016 74.0319 47.0016 64.2028V17.8617C47.0016 14.6244 44.3772 12 41.1399 12C38.7165 12 36.543 13.4912 35.6709 15.7523L11.5996 78.1592C10.4071 81.2509 6.93408 82.7905 3.84238 81.598C0.750688 80.4055 -0.788905 76.9325 0.403606 73.8408L24.4749 11.4338Z"
  />
</svg>